<svg width="560" height="128" viewBox="0 0 560 128" fill="none" xmlns="http://www.w3.org/2000/svg" role="img" aria-labelledby="title desc">
  <title id="title">Law Arena Associates</title>
  <desc id="desc">Professional legal brand logo with a balanced scales mark and Law Arena Associates wordmark.</desc>
  <rect x="4" y="4" width="120" height="120" rx="10" fill="#0B0B0B"/>
  <rect x="11" y="11" width="106" height="106" rx="7" stroke="#D7B56D" stroke-width="2"/>
  <path d="M64 28V88" stroke="#F6F0E4" stroke-width="4" stroke-linecap="round"/>
  <path d="M42 88H86" stroke="#F6F0E4" stroke-width="4" stroke-linecap="round"/>
  <path d="M50 101H78" stroke="#D7B56D" stroke-width="4" stroke-linecap="round"/>
  <path d="M34 46H94" stroke="#D7B56D" stroke-width="4" stroke-linecap="round"/>
  <path d="M42 46L27 76H57L42 46Z" stroke="#F6F0E4" stroke-width="3.5" stroke-linejoin="round"/>
  <path d="M86 46L71 76H101L86 46Z" stroke="#F6F0E4" stroke-width="3.5" stroke-linejoin="round"/>
  <path d="M28 76C31 81 53 81 56 76" stroke="#D7B56D" stroke-width="3" stroke-linecap="round"/>
  <path d="M72 76C75 81 97 81 100 76" stroke="#D7B56D" stroke-width="3" stroke-linecap="round"/>
  <path d="M54 30C54 24.5 58.5 20 64 20C69.5 20 74 24.5 74 30" stroke="#D7B56D" stroke-width="3.5" stroke-linecap="round"/>
  <path d="M150 89H512" stroke="#D7B56D" stroke-width="2"/>
  <text x="150" y="59" fill="#0B0B0B" font-family="Georgia, 'Times New Roman', serif" font-size="44" font-weight="700" letter-spacing="5">LAW ARENA</text>
  <text x="153" y="105" fill="#565656" font-family="Inter, Arial, sans-serif" font-size="17" font-weight="700" letter-spacing="8">ASSOCIATES</text>
</svg>
