<svg width="128" height="128" viewBox="0 0 128 128" fill="none" xmlns="http://www.w3.org/2000/svg" role="img" aria-labelledby="title desc">
  <title id="title">Law Arena Associates Mark</title>
  <desc id="desc">Balanced legal scales mark for Law Arena Associates.</desc>
  <rect x="4" y="4" width="120" height="120" rx="10" fill="#0B0B0B"/>
  <rect x="11" y="11" width="106" height="106" rx="7" stroke="#D7B56D" stroke-width="2"/>
  <path d="M64 28V88" stroke="#F6F0E4" stroke-width="4" stroke-linecap="round"/>
  <path d="M42 88H86" stroke="#F6F0E4" stroke-width="4" stroke-linecap="round"/>
  <path d="M50 101H78" stroke="#D7B56D" stroke-width="4" stroke-linecap="round"/>
  <path d="M34 46H94" stroke="#D7B56D" stroke-width="4" stroke-linecap="round"/>
  <path d="M42 46L27 76H57L42 46Z" stroke="#F6F0E4" stroke-width="3.5" stroke-linejoin="round"/>
  <path d="M86 46L71 76H101L86 46Z" stroke="#F6F0E4" stroke-width="3.5" stroke-linejoin="round"/>
  <path d="M28 76C31 81 53 81 56 76" stroke="#D7B56D" stroke-width="3" stroke-linecap="round"/>
  <path d="M72 76C75 81 97 81 100 76" stroke="#D7B56D" stroke-width="3" stroke-linecap="round"/>
  <path d="M54 30C54 24.5 58.5 20 64 20C69.5 20 74 24.5 74 30" stroke="#D7B56D" stroke-width="3.5" stroke-linecap="round"/>
</svg>
